<?xml version="1.0" encoding="iso-8859-1"?>
<!-- Uploaded to: SVG Repo, www.svgrepo.com, Generator: SVG Repo Mixer Tools -->

<svg fill="#FFF" height="25" width="25" version="1.1" id="Layer_1" xmlns="http://www.w3.org/2000/svg" xmlns:xlink="http://www.w3.org/1999/xlink" 
	 viewBox="0 0 506 506" xml:space="preserve">
<g>
	<g>
		<path d="M489.8,149.4l-106-106C373.4,32.6,359.4,27,344.6,27c-14.8,0-28.8,6-39.2,16.4L16.2,332.6c-21.6,21.6-21.6,56.4,0,78
			l68,67.2c0.8,0.8,1.6,1.2,2.8,1.2h149.6c0.8,0,2-0.4,2-1.2l251.2-250.4C511.4,205.8,511.4,171,489.8,149.4z M484.6,221.8
			L234.6,471h-146l-66.4-66c-18.4-18.4-18.4-48.4,0-66.8L311.4,49c8.8-9.2,20.8-14,33.6-14c12.8,0,24.8,5.2,33.6,14l106,106
			C503,173.4,503,203.4,484.6,221.8z"
      stroke="#FFF" stroke-width="30"/> <!-- Here stroke-width="4" is added -->
	</g>
</g>
<g>
	<g>
		<path d="M364.2,471H87c-2.4,0-4,1.6-4,4c0,2.4,1.6,4,4,4h277.2c2.4,0,4-1.6,4-4C368.2,472.6,366.6,471,364.2,471z"  stroke="#FFF" stroke-width="30"/>
	</g>
</g>
<g>
	<g>
		<path d="M348.2,363.4L197.4,212.6c-1.6-1.6-4-1.6-5.6,0c-1.6,1.6-1.6,4,0,5.6L342.6,369c0.8,0.8,1.6,1.2,2.8,1.2
			c0.8,0,2-0.4,2.8-1.2C349.8,367.4,349.8,365,348.2,363.4z"  stroke="#FFF" stroke-width="30"/>
	</g>
</g>
<g>
	<g>
		<path d="M443.4,455h-190c-2.4,0-4,1.6-4,4c0,2.4,1.6,4,4,4h190c2.4,0,4-1.6,4-4C447.4,456.6,445.8,455,443.4,455z"  stroke="#FFF" stroke-width="30"/>
	</g>
</g>
</svg>